<?xml version="1.0" encoding="utf-8"?>
<svg version="1.1" width="64" height="64" viewBox="0 0 64 64" xmlns="http://www.w3.org/2000/svg">
  <g id="surface1" style="" transform="matrix(0.336071, 0, 0, 0.296909, 36.149166, -35.802197)">
    <path style="stroke: none; fill-rule: nonzero; fill: rgb(222, 119, 56); fill-opacity: 1;" d="M -33.786 215.815 C -25.058 216.629 -16.699 218.549 -9.792 215.072 C -8.64 216.962 -8.464 218.103 -8.093 218.536 C -5.215 217.201 4.429 211.65 5.403 210.099 C 6.569 211.301 11.329 215.441 10.659 219.413 C 16.784 215 21.819 204.54 18.16 198.896 C 19.244 198.72 20.733 198.881 21.352 199.414 C 21.093 196.151 18.998 190.977 11.388 186.714 C 8.723 183.835 4.745 179.973 -2.291 179.769 C -1.774 180.969 -1.966 182.036 -2.325 182.889 C -11.562 180.301 -20.271 185.47 -25.5 187.782 C -22.003 188.691 -16.794 191.243 -14.506 194.275 C -17.324 195.033 -20.767 197.408 -23.882 201.167 C -22.223 201.698 -21.092 202.415 -20.222 203.233 C -25.279 205.549 -22.707 212.842 -33.786 215.815 Z M -33.786 215.815"/>
    <path style="stroke: none; fill-rule: nonzero; fill: rgb(125, 78, 37); fill-opacity: 1;" d="M -20.891 212.449 C -16.474 210.249 -12.514 207.546 -8.802 204.691 C -5.099 201.821 -1.676 198.749 1.507 195.547 C 5.324 191.696 7.094 189.699 10.357 185.597 C 11.719 183.889 13.035 182.159 14.319 180.417 C 14.96 179.544 15.591 178.673 16.227 177.795 C 16.873 176.915 17.496 176.044 18.235 175.137 C 18.854 174.376 19.948 174.25 20.714 174.851 C 21.479 175.45 21.629 176.56 21.008 177.339 C 20.991 177.36 20.971 177.385 20.952 177.407 C 20.949 177.41 20.949 177.412 20.945 177.417 C 20.31 178.13 19.653 178.97 18.998 179.796 C 18.343 180.625 17.682 181.47 17.01 182.314 C 15.666 183.999 14.276 185.687 12.834 187.358 C 9.372 191.379 7.496 193.335 3.476 197.081 C 0.115 200.201 -3.49 203.182 -7.389 205.952 C -11.294 208.706 -15.454 211.3 -20.115 213.386 C -20.439 213.532 -20.872 213.436 -21.082 213.177 C -21.282 212.924 -21.196 212.609 -20.902 212.455 C -20.899 212.453 -20.894 212.451 -20.891 212.449 Z M -20.891 212.449"/>
    <path style="stroke: none; fill-rule: nonzero; fill: rgb(189, 147, 36); fill-opacity: 1;" d="M -58.824 234.302 C -56.872 238.002 -55.993 241.966 -52.019 244.14 C -52.976 245.09 -53.703 245.417 -53.908 245.674 C -52.347 246.625 -46.368 249.655 -45.073 249.732 C -45.642 250.552 -47.624 253.659 -50.665 254.119 C -46.332 256.015 -37.521 256.229 -34.343 252.971 C -33.971 253.458 -33.762 254.231 -34.015 254.673 C -31.707 253.718 -28.293 251.29 -27.869 246.096 C -26.82 243.839 -25.854 240.443 -28.382 236.847 C -28.854 237.544 -29.531 237.822 -30.144 237.949 C -32.001 232.464 -38.057 230.326 -41.036 228.891 C -40.244 230.764 -39.747 234.045 -40.698 236.092 C -42.04 235.068 -44.457 234.342 -47.518 234.195 C -47.302 235.073 -47.361 235.783 -47.57 236.409 C -50.421 234.924 -53.975 237.975 -58.824 234.302 Z M -58.824 234.302"/>
    <path style="stroke: none; fill-rule: nonzero; fill: rgb(125, 78, 37); fill-opacity: 1;" d="M -53.244 238.724 C -50.692 240.01 -47.939 241.012 -45.128 241.866 C -42.313 242.722 -39.416 243.411 -36.469 243.96 C -32.924 244.617 -31.122 244.873 -27.468 245.215 C -25.945 245.363 -24.412 245.477 -22.861 245.578 C -22.086 245.629 -21.309 245.667 -20.523 245.714 C -19.731 245.768 -18.951 245.814 -18.096 245.908 C -17.385 245.985 -16.921 246.535 -17.064 247.147 C -17.211 247.756 -17.921 248.198 -18.646 248.119 C -18.669 248.115 -18.69 248.109 -18.711 248.108 C -18.714 248.107 -18.72 248.108 -18.724 248.107 C -19.408 247.999 -20.183 247.918 -20.939 247.837 C -21.704 247.756 -22.474 247.68 -23.243 247.594 C -24.783 247.427 -26.32 247.245 -27.849 247.029 C -31.524 246.518 -33.331 246.178 -36.875 245.361 C -39.828 244.672 -42.72 243.843 -45.528 242.857 C -48.328 241.857 -51.062 240.731 -53.604 239.299 C -53.783 239.201 -53.841 238.994 -53.736 238.838 C -53.637 238.686 -53.419 238.639 -53.248 238.724 C -53.245 238.725 -53.245 238.723 -53.244 238.724 Z M -53.244 238.724"/>
    <path style="stroke: none; fill-rule: nonzero; fill: rgb(181, 48, 35); fill-opacity: 1;" d="M -36.613 209.79 C -38.347 211.2 -39.602 212.979 -42.022 213.195 C -41.743 213.871 -41.453 214.192 -41.402 214.363 C -42.375 214.495 -45.962 214.706 -46.619 214.469 C -46.507 214.999 -46.171 216.963 -44.761 217.845 C -47.3 217.853 -51.705 216.058 -52.603 213.761 C -52.889 213.921 -53.152 214.259 -53.116 214.533 C -54.062 213.564 -55.248 211.625 -54.38 208.963 C -54.433 207.621 -54.209 205.73 -52.207 204.494 C -52.12 204.937 -51.842 205.227 -51.566 205.418 C -49.509 203.106 -46.071 203.35 -44.295 203.28 C -45.077 204.035 -46.005 205.555 -45.956 206.773 C -45.079 206.554 -43.733 206.714 -42.188 207.302 C -42.476 207.686 -42.593 208.053 -42.62 208.407 C -40.9 208.291 -39.772 210.565 -36.613 209.79 Z M -36.613 209.79"/>
    <path style="stroke: none; fill-rule: nonzero; fill: rgb(125, 78, 37); fill-opacity: 1;" d="M -40.294 210.78 C -41.82 210.867 -43.389 210.763 -44.961 210.583 C -46.53 210.399 -48.106 210.118 -49.682 209.759 C -51.572 209.318 -52.519 209.057 -54.397 208.44 C -55.183 208.184 -55.964 207.909 -56.753 207.623 C -57.147 207.479 -57.541 207.332 -57.939 207.19 C -58.341 207.044 -58.738 206.897 -59.179 206.76 C -59.551 206.648 -59.894 206.821 -59.948 207.153 C -60.002 207.487 -59.741 207.859 -59.365 207.976 C -59.355 207.977 -59.343 207.98 -59.333 207.982 C -59.331 207.982 -59.328 207.985 -59.327 207.985 C -58.966 208.08 -58.567 208.207 -58.173 208.33 C -57.779 208.455 -57.381 208.579 -56.981 208.705 C -56.183 208.956 -55.385 209.194 -54.585 209.42 C -52.658 209.956 -51.696 210.179 -49.77 210.536 C -48.165 210.831 -46.562 211.045 -44.968 211.162 C -43.376 211.273 -41.786 211.301 -40.232 211.14 C -40.125 211.129 -40.053 211.038 -40.073 210.941 C -40.091 210.84 -40.186 210.774 -40.291 210.78 C -40.294 210.78 -40.293 210.78 -40.294 210.78 Z M -40.294 210.78"/>
    <path style="stroke: none; fill-rule: nonzero; fill: rgb(222, 119, 56); fill-opacity: 1;" d="M 8.008 261.051 C 6.051 264.753 5.173 268.723 1.201 270.893 C 2.153 271.846 2.88 272.166 3.09 272.425 C 1.528 273.378 -4.457 276.405 -5.748 276.48 C -5.179 277.304 -3.202 280.416 -0.159 280.874 C -4.492 282.77 -13.298 282.984 -16.474 279.725 C -16.848 280.209 -17.056 280.989 -16.803 281.427 C -19.112 280.472 -22.528 278.046 -22.952 272.852 C -24 270.597 -24.964 267.191 -22.433 263.601 C -21.965 264.293 -21.291 264.576 -20.674 264.697 C -18.818 259.217 -12.765 257.079 -9.783 255.645 C -10.575 257.518 -11.072 260.802 -10.119 262.846 C -8.779 261.822 -6.36 261.093 -3.3 260.948 C -3.516 261.825 -3.46 262.534 -3.251 263.159 C -0.399 261.673 3.161 264.725 8.008 261.051 Z M 8.008 261.051"/>
    <path style="stroke: none; fill-rule: nonzero; fill: rgb(125, 78, 37); fill-opacity: 1;" d="M 2.421 265.477 C -0.13 266.763 -2.881 267.761 -5.692 268.621 C -8.507 269.474 -11.404 270.16 -14.351 270.713 C -17.898 271.366 -19.698 271.624 -23.354 271.968 C -24.877 272.112 -26.41 272.227 -27.957 272.323 C -28.734 272.376 -29.512 272.422 -30.298 272.467 C -31.089 272.518 -31.871 272.563 -32.724 272.652 C -33.438 272.733 -33.904 273.284 -33.757 273.893 C -33.612 274.506 -32.898 274.948 -32.174 274.866 C -32.152 274.863 -32.132 274.859 -32.108 274.856 C -32.105 274.855 -32.102 274.856 -32.099 274.855 C -31.416 274.747 -30.64 274.67 -29.883 274.588 C -29.121 274.507 -28.35 274.424 -27.579 274.343 C -26.038 274.177 -24.498 273.992 -22.97 273.78 C -19.298 273.268 -17.491 272.934 -13.947 272.112 C -10.994 271.423 -8.1 270.595 -5.291 269.606 C -2.492 268.604 0.244 267.479 2.783 266.05 C 2.961 265.948 3.022 265.745 2.915 265.586 C 2.813 265.436 2.6 265.386 2.428 265.476 C 2.424 265.477 2.423 265.477 2.421 265.477 Z M 2.421 265.477"/>
    <path style="stroke: none; fill-rule: nonzero; fill: rgb(237, 184, 44); fill-opacity: 1;" d="M 35.263 255.223 C 32.424 255.373 29.836 256.369 27.304 255.169 C 27.065 256.053 27.101 256.559 27.015 256.77 C 25.983 256.33 22.319 254.652 21.83 254.073 C 21.571 254.706 20.526 256.972 21.187 258.604 C 18.799 257.345 15.704 253.689 16.158 250.803 C 15.761 250.878 15.281 251.167 15.153 251.484 C 14.758 250.085 14.589 247.548 16.948 244.728 C 17.592 243.155 18.744 240.932 21.695 240.218 C 21.586 240.786 21.762 241.23 21.987 241.57 C 25.559 239.639 29.551 241.706 31.67 242.729 C 30.294 243.133 28.331 244.394 27.625 245.819 C 28.741 246.045 30.157 247.019 31.419 248.665 C 30.836 248.909 30.457 249.242 30.183 249.617 C 32.099 250.548 31.555 253.646 35.263 255.223 Z M 35.263 255.223"/>
    <path style="stroke: none; fill-rule: nonzero; fill: rgb(125, 78, 37); fill-opacity: 1;" d="M 30.85 253.675 C 29.254 252.763 27.725 251.716 26.202 250.664 C 24.687 249.603 23.185 248.51 21.69 247.416 L 17.201 244.115 C 16.45 243.565 15.695 243.022 14.932 242.479 C 14.551 242.211 14.168 241.944 13.772 241.678 C 13.38 241.416 12.988 241.156 12.541 240.905 C 12.166 240.697 11.693 240.837 11.488 241.217 C 11.285 241.601 11.423 242.081 11.795 242.289 C 11.807 242.297 11.818 242.303 11.83 242.308 L 11.835 242.311 C 12.209 242.495 12.599 242.728 12.988 242.958 C 13.379 243.195 13.766 243.434 14.156 243.686 C 14.93 244.179 15.708 244.684 16.478 245.196 L 21.123 248.266 C 22.67 249.288 24.227 250.305 25.805 251.293 C 27.379 252.276 28.966 253.254 30.635 254.098 C 30.749 254.155 30.891 254.109 30.945 253.989 C 31.002 253.876 30.959 253.739 30.852 253.675 Z M 30.85 253.675"/>
  </g>
</svg>