<?xml version="1.0" encoding="utf-8"?>
<!-- (c) ammap.com | SVG weather icons -->
<svg
    version="1.1"
    xmlns="http://www.w3.org/2000/svg"
    xmlns:xlink="http://www.w3.org/1999/xlink"
    width="64"
    height="64"
    viewbox="0 0 64 64">
    <defs>
        <filter id="blur" width="200%" height="200%">
            <feGaussianBlur in="SourceAlpha" stdDeviation="3"/>
            <feOffset dx="0" dy="4" result="offsetblur"/>
            <feComponentTransfer>
                <feFuncA type="linear" slope="0.05"/>
            </feComponentTransfer>
            <feMerge> 
                <feMergeNode/>
                <feMergeNode in="SourceGraphic"/> 
            </feMerge>
        </filter>
        <linearGradient id="a" x1="19.64" x2="37.19" y1="18.96" y2="49.35" gradientUnits="userSpaceOnUse"><stop offset="0" stop-color="orange"/>
	</linearGradient>
    </defs>
    <g filter="url(#blur)" id="night">
        <g transform="translate(20,15)">
            <g class="am-weather-moon-star-1">
                <polygon fill="orange" points="3.3,1.5 4,2.7 5.2,3.3 4,4 3.3,5.2 2.7,4 1.5,3.3 2.7,2.7" stroke="none" stroke-miterlimit="10"/>
            </g>
            <g class="am-weather-moon-star-2">
                <polygon fill="orange" points="3.3,1.5 4,2.7 5.2,3.3 4,4 3.3,5.2 2.7,4 1.5,3.3 2.7,2.7" stroke="none" stroke-miterlimit="10" transform="translate(25,10)"/>
            </g>

        </g>
    </g>
    <path fill="url(#a)" stroke="orange" stroke-linecap="round" stroke-linejoin="round" stroke-width=".5" d="M 37.512 18.623 C 36.087 18.026 34.543 17.711 32.978 17.7 C 38.839 23.359 35.813 32.707 27.533 34.527 C 26.606 34.732 25.653 34.824 24.7 34.804 C 25.686 35.93 26.993 36.784 28.476 37.272 C 34.122 39.625 40.783 37.35 43.37 32.185 C 45.841 26.957 43.218 20.885 37.512 18.623 Z"></path>
</svg>