<svg
    version="1.1"
    xmlns="http://www.w3.org/2000/svg"
    xmlns:xlink="http://www.w3.org/1999/xlink"
    width="64"
    height="64"
    viewbox="0 0 64 64">
    <defs>
      <linearGradient id="polygon" gradientTransform="rotate(90)">
        <stop offset="20%"  stop-color="#808080"/>
        <stop offset="80%" stop-color="#555555"/>
      </linearGradient>
      <linearGradient id="num" gradientTransform="rotate(0)">
        <stop offset="30%"  stop-color="#328CFF"/>
        <stop offset="70%" stop-color="#98E3A7"/>
      </linearGradient>
      <linearGradient id="text" gradientTransform="rotate(90)">
        <stop offset="20%"  stop-color="#FFEB7F"/>
        <stop offset="80%" stop-color="#FFD700"/>
      </linearGradient>
    </defs>
<polygon fill="url(#polygon)" points="36.4 10.3 2.3 10.3 2.3 17.755 14.404 17.755 14.404 38.9 24.928 38.9 24.928 17.755 36.4 17.755 36.4 10.3"></polygon>
<path fill="url(#text)" stroke="url(#text)" stroke-linejoin="round" stroke-linecap="round" stroke-width="1" d="M 47.52 25.767 C 46.21 25.414 45.084 24.767 44.301 23.913 C 43.568 23.046 43.193 22.039 43.222 21.017 C 43.177 19.426 43.991 17.887 45.484 16.743 C 47.036 15.564 49.194 14.932 51.418 15.005 C 53.659 14.94 55.831 15.586 57.386 16.782 C 58.883 17.94 59.695 19.491 59.648 21.094 C 59.68 22.088 59.325 23.066 58.622 23.913 C 57.865 24.758 56.768 25.406 55.49 25.767 C 57.11 26.17 58.5 26.963 59.439 28.02 C 60.372 29.136 60.844 30.428 60.797 31.74 C 60.865 33.599 59.939 35.402 58.221 36.76 C 56.467 38.129 54 38.87 51.453 38.794 C 48.905 38.871 46.436 38.13 44.684 36.76 C 42.937 35.363 42.011 33.512 42.109 31.611 C 42.029 30.247 42.521 28.899 43.518 27.749 C 44.466 26.718 45.888 25.978 47.52 25.664 M 45.676 31.663 C 45.676 32.476 45.914 33.279 46.372 34.018 C 46.796 34.755 47.52 35.376 48.442 35.795 C 49.352 36.209 50.4 36.427 51.47 36.425 C 53.038 36.468 54.553 35.997 55.611 35.138 C 56.734 34.206 57.32 32.987 57.247 31.74 C 57.287 30.478 56.664 29.255 55.507 28.329 C 54.423 27.466 52.886 26.996 51.296 27.041 C 49.742 26.999 48.242 27.47 47.207 28.329 C 46.119 29.249 45.549 30.441 45.606 31.663 M 46.824 20.927 C 46.768 21.917 47.23 22.885 48.112 23.63 C 48.98 24.33 50.221 24.711 51.505 24.673 C 52.765 24.702 53.981 24.321 54.828 23.63 C 55.688 22.927 56.144 22.003 56.099 21.055 C 56.112 20.104 55.639 19.185 54.776 18.481 C 53.934 17.779 52.719 17.389 51.453 17.412 C 50.186 17.384 48.966 17.764 48.112 18.455 C 47.268 19.126 46.807 20.011 46.824 20.927"></path>

<path d="M 10.497 0 L 10.497 -103.276 L 43.959 -103.276 Q 62.98 -103.276 68.757 -101.726 Q 77.633 -99.401 83.621 -91.617 Q 89.609 -83.832 89.609 -71.504 Q 89.609 -61.994 86.157 -55.512 Q 82.705 -49.031 77.386 -45.333 Q 72.068 -41.634 66.573 -40.437 Q 59.105 -38.957 44.945 -38.957 L 31.349 -38.957 L 31.349 0 Z M 31.349 -85.805 L 31.349 -56.499 L 42.761 -56.499 Q 55.09 -56.499 59.246 -58.119 Q 63.403 -59.739 65.763 -63.191 Q 68.123 -66.643 68.123 -71.222 Q 68.123 -76.858 64.811 -80.521 Q 61.5 -84.184 56.428 -85.1 Q 52.695 -85.805 41.423 -85.805 Z M 101.792 0 L 101.792 -103.276 L 145.681 -103.276 Q 162.236 -103.276 169.739 -100.493 Q 177.241 -97.71 181.75 -90.595 Q 186.259 -83.48 186.259 -74.322 Q 186.259 -62.698 179.425 -55.125 Q 172.592 -47.552 158.996 -45.579 Q 165.759 -41.634 170.162 -36.914 Q 174.564 -32.194 182.032 -20.148 L 194.642 0 L 169.704 0 L 154.628 -22.473 Q 146.597 -34.519 143.638 -37.654 Q 140.679 -40.789 137.368 -41.951 Q 134.057 -43.114 126.872 -43.114 L 122.645 -43.114 L 122.645 0 Z M 122.645 -59.598 L 138.073 -59.598 Q 153.078 -59.598 156.812 -60.866 Q 160.545 -62.134 162.659 -65.234 Q 164.772 -68.334 164.772 -72.983 Q 164.772 -78.196 161.99 -81.402 Q 159.207 -84.607 154.135 -85.453 Q 151.599 -85.805 138.918 -85.805 L 122.645 -85.805 Z M 200.899 0 L 200.899 -103.276 L 277.475 -103.276 L 277.475 -85.805 L 221.751 -85.805 L 221.751 -62.909 L 273.6 -62.909 L 273.6 -45.509 L 221.751 -45.509 L 221.751 -17.4 L 279.447 -17.4 L 279.447 0 Z" transform="matrix(0.090103, 0, 0, 0.090105, 1.387197, 62)" style="fill: url(#text); line-height: 248.599px;"></path>

<path d="M 97.287 -126.852 L 97.287 -17.779 L 120.859 -17.779 C 110.871 -8.39 98.685 -0.2 83.902 6.992 L 94.49 20.376 C 109.872 12.386 122.857 3.196 133.245 -7.391 L 121.259 -17.779 L 158.815 -17.779 L 147.828 -7.192 C 162.211 2.197 173.198 10.987 181.189 19.178 L 193.374 7.192 C 184.185 -1.199 172.798 -9.589 159.414 -17.779 L 182.387 -17.779 L 182.387 -126.852 L 144.432 -126.852 C 146.03 -131.247 147.428 -135.642 148.627 -140.236 L 189.579 -140.236 L 189.579 -157.017 L 89.895 -157.017 L 89.895 -140.236 L 129.849 -140.236 C 128.65 -135.642 127.252 -131.247 125.653 -126.852 L 97.287 -126.852 Z M 164.608 -33.161 L 115.066 -33.161 L 115.066 -50.142 L 164.608 -50.142 L 164.608 -33.161 Z M 115.066 -64.924 L 115.066 -81.105 L 164.608 -81.105 L 164.608 -64.924 L 115.066 -64.924 Z M 115.066 -95.888 L 115.066 -111.47 L 164.608 -111.47 L 164.608 -95.888 L 115.066 -95.888 Z M 28.966 -131.047 L 14.983 -122.257 C 25.171 -112.669 33.96 -103.679 41.152 -95.289 L 7.192 -95.289 L 7.192 -77.709 L 35.359 -77.709 L 35.359 -2.997 C 35.359 1.398 33.561 3.596 30.365 3.596 C 24.971 3.596 19.377 3.196 13.384 2.397 L 17.18 19.577 L 36.557 19.577 C 47.744 19.577 53.538 13.384 53.538 1.398 L 53.538 -77.709 L 70.917 -77.709 C 68.52 -68.121 65.723 -59.93 62.727 -52.938 L 77.709 -47.145 C 81.705 -55.935 85.301 -68.121 88.297 -83.702 L 88.297 -95.289 L 61.528 -95.289 C 59.331 -98.086 56.734 -101.282 53.737 -104.878 C 63.326 -115.266 72.116 -127.851 80.506 -142.634 L 80.506 -157.017 L 13.784 -157.017 L 13.784 -140.236 L 61.129 -140.236 C 55.735 -131.447 49.742 -123.656 43.349 -116.464 C 38.955 -121.059 34.16 -125.853 28.966 -131.047 Z M 209.834 -156.418 L 209.834 -142.833 L 232.408 -142.833 L 232.408 -137.24 L 222.02 -138.838 C 218.824 -126.852 213.031 -117.463 204.241 -110.271 L 214.229 -97.886 C 218.025 -101.082 221.621 -104.878 225.017 -109.073 L 225.017 -84.501 L 266.968 -84.501 L 268.366 -79.707 L 276.557 -79.707 C 278.954 -79.707 281.351 -80.107 283.548 -80.706 C 284.747 -78.708 286.145 -76.711 287.344 -74.313 L 208.836 -74.313 L 208.836 -60.929 L 382.034 -60.929 L 382.034 -74.313 L 305.523 -74.313 C 303.925 -78.708 302.127 -82.504 300.329 -85.9 L 291.339 -84.701 C 292.138 -85.5 293.137 -86.499 293.936 -87.698 C 296.733 -92.093 298.331 -103.28 298.93 -120.859 L 308.12 -109.273 C 312.115 -112.868 315.711 -116.664 319.107 -121.059 C 321.704 -115.865 325.5 -110.671 330.294 -105.677 C 322.703 -100.882 313.114 -97.486 301.927 -95.089 L 308.919 -79.907 C 322.303 -83.103 333.69 -88.097 343.279 -95.089 C 352.069 -89.096 363.056 -83.902 376.24 -79.507 L 384.83 -94.69 C 373.444 -98.086 363.655 -102.081 355.265 -106.676 C 362.057 -115.066 366.851 -125.454 369.648 -137.839 L 380.435 -137.839 L 380.435 -153.221 L 335.288 -153.221 C 336.087 -156.218 336.886 -159.214 337.685 -162.411 L 320.505 -165.207 C 316.71 -148.027 309.518 -134.243 298.93 -123.456 L 298.93 -131.846 L 236.204 -131.846 L 237.202 -135.242 L 247.99 -135.242 L 247.99 -142.833 L 266.169 -142.833 L 266.169 -135.242 L 281.751 -135.242 L 281.751 -142.833 L 304.524 -142.833 L 304.524 -156.418 L 281.751 -156.418 L 281.751 -164.408 L 266.169 -164.408 L 266.169 -156.418 L 247.99 -156.418 L 247.99 -164.408 L 232.408 -164.408 L 232.408 -156.418 L 209.834 -156.418 Z M 268.965 -91.693 L 268.965 -113.068 L 227.614 -113.068 C 228.812 -115.066 230.011 -117.063 231.209 -119.261 L 281.551 -119.261 C 281.351 -107.674 280.752 -100.083 279.953 -96.887 C 278.954 -93.691 276.756 -92.093 273.161 -91.693 L 268.965 -91.693 Z M 254.782 -94.09 L 239 -94.09 L 239 -103.28 L 254.782 -103.28 L 254.782 -94.09 Z M 329.295 -137.839 L 353.467 -137.839 C 351.469 -129.449 347.674 -122.058 342.28 -115.665 C 335.488 -121.458 330.893 -128.051 328.096 -135.442 L 329.295 -137.839 Z M 233.007 -53.937 L 233.007 -42.95 L 359.46 -42.95 L 359.46 -53.937 L 233.007 -53.937 Z M 233.007 -35.958 L 233.007 -24.971 L 359.46 -24.971 L 359.46 -35.958 L 233.007 -35.958 Z M 366.652 -17.18 L 226.215 -17.18 L 226.215 22.174 L 244.594 22.174 L 244.594 16.78 L 348.273 16.78 L 348.273 22.174 L 366.652 22.174 L 366.652 -17.18 Z M 244.594 4.395 L 244.594 -4.994 L 348.273 -4.994 L 348.273 4.395 L 244.594 4.395 Z" transform="matrix(0.090103, 0, 0, 0.090105, 28.5, 60.335953)" style="fill: url(#text);"></path>
</svg>