<svg
    version="1.1"
    xmlns="http://www.w3.org/2000/svg"
    xmlns:xlink="http://www.w3.org/1999/xlink"
    width="64"
    height="64"
    viewbox="0 0 64 64">
    <defs>
      <linearGradient id="grey" gradientTransform="rotate(90)">
        <stop offset="20%"  stop-color="#999999"/>
        <stop offset="80%" stop-color="#606060"/>
      </linearGradient>
    </defs>
<polygon fill="url(#grey)" points="36.4 10.3 2.3 10.3 2.3 17.755 14.404 17.755 14.404 38.9 24.928 38.9 24.928 17.755 36.4 17.755 36.4 10.3"></polygon>
<path fill="url(#grey)" stroke="url(#grey)" stroke-linejoin="round" stroke-linecap="round" stroke-width="1" d="M 47.52 25.767 C 46.21 25.414 45.084 24.767 44.301 23.913 C 43.568 23.046 43.193 22.039 43.222 21.017 C 43.177 19.426 43.991 17.887 45.484 16.743 C 47.036 15.564 49.194 14.932 51.418 15.005 C 53.659 14.94 55.831 15.586 57.386 16.782 C 58.883 17.94 59.695 19.491 59.648 21.094 C 59.68 22.088 59.325 23.066 58.622 23.913 C 57.865 24.758 56.768 25.406 55.49 25.767 C 57.11 26.17 58.5 26.963 59.439 28.02 C 60.372 29.136 60.844 30.428 60.797 31.74 C 60.865 33.599 59.939 35.402 58.221 36.76 C 56.467 38.129 54 38.87 51.453 38.794 C 48.905 38.871 46.436 38.13 44.684 36.76 C 42.937 35.363 42.011 33.512 42.109 31.611 C 42.029 30.247 42.521 28.899 43.518 27.749 C 44.466 26.718 45.888 25.978 47.52 25.664 M 45.676 31.663 C 45.676 32.476 45.914 33.279 46.372 34.018 C 46.796 34.755 47.52 35.376 48.442 35.795 C 49.352 36.209 50.4 36.427 51.47 36.425 C 53.038 36.468 54.553 35.997 55.611 35.138 C 56.734 34.206 57.32 32.987 57.247 31.74 C 57.287 30.478 56.664 29.255 55.507 28.329 C 54.423 27.466 52.886 26.996 51.296 27.041 C 49.742 26.999 48.242 27.47 47.207 28.329 C 46.119 29.249 45.549 30.441 45.606 31.663 M 46.824 20.927 C 46.768 21.917 47.23 22.885 48.112 23.63 C 48.98 24.33 50.221 24.711 51.505 24.673 C 52.765 24.702 53.981 24.321 54.828 23.63 C 55.688 22.927 56.144 22.003 56.099 21.055 C 56.112 20.104 55.639 19.185 54.776 18.481 C 53.934 17.779 52.719 17.389 51.453 17.412 C 50.186 17.384 48.966 17.764 48.112 18.455 C 47.268 19.126 46.807 20.011 46.824 20.927"></path>

<path d="M 10.497 0 L 10.497 -103.276 L 43.959 -103.276 Q 62.98 -103.276 68.757 -101.726 Q 77.633 -99.401 83.621 -91.617 Q 89.609 -83.832 89.609 -71.504 Q 89.609 -61.994 86.157 -55.512 Q 82.705 -49.031 77.386 -45.333 Q 72.068 -41.634 66.573 -40.437 Q 59.105 -38.957 44.945 -38.957 L 31.349 -38.957 L 31.349 0 Z M 31.349 -85.805 L 31.349 -56.499 L 42.761 -56.499 Q 55.09 -56.499 59.246 -58.119 Q 63.403 -59.739 65.763 -63.191 Q 68.123 -66.643 68.123 -71.222 Q 68.123 -76.858 64.811 -80.521 Q 61.5 -84.184 56.428 -85.1 Q 52.695 -85.805 41.423 -85.805 Z M 101.792 0 L 101.792 -103.276 L 145.681 -103.276 Q 162.236 -103.276 169.739 -100.493 Q 177.241 -97.71 181.75 -90.595 Q 186.259 -83.48 186.259 -74.322 Q 186.259 -62.698 179.425 -55.125 Q 172.592 -47.552 158.996 -45.579 Q 165.759 -41.634 170.162 -36.914 Q 174.564 -32.194 182.032 -20.148 L 194.642 0 L 169.704 0 L 154.628 -22.473 Q 146.597 -34.519 143.638 -37.654 Q 140.679 -40.789 137.368 -41.951 Q 134.057 -43.114 126.872 -43.114 L 122.645 -43.114 L 122.645 0 Z M 122.645 -59.598 L 138.073 -59.598 Q 153.078 -59.598 156.812 -60.866 Q 160.545 -62.134 162.659 -65.234 Q 164.772 -68.334 164.772 -72.983 Q 164.772 -78.196 161.99 -81.402 Q 159.207 -84.607 154.135 -85.453 Q 151.599 -85.805 138.918 -85.805 L 122.645 -85.805 Z M 200.899 0 L 200.899 -103.276 L 277.475 -103.276 L 277.475 -85.805 L 221.751 -85.805 L 221.751 -62.909 L 273.6 -62.909 L 273.6 -45.509 L 221.751 -45.509 L 221.751 -17.4 L 279.447 -17.4 L 279.447 0 Z" transform="matrix(0.090103, 0, 0, 0.090105, 1.387197, 62)" style="fill: url(#grey); line-height: 248.599px;"></path>

<path d="M 96.887 -127.451 L 96.887 -17.18 L 119.061 -17.18 C 109.472 -8.39 97.686 -0.799 83.503 5.993 L 94.889 20.776 C 110.271 12.785 123.256 3.596 133.644 -6.792 L 121.858 -17.18 L 158.415 -17.18 L 147.428 -6.592 C 161.811 2.597 172.798 11.387 180.39 19.577 L 193.774 6.193 C 184.984 -1.598 174.197 -9.389 161.412 -17.18 L 182.987 -17.18 L 182.987 -127.451 L 145.63 -127.451 C 147.029 -131.447 148.227 -135.442 149.426 -139.437 L 189.779 -139.437 L 189.779 -157.816 L 89.695 -157.816 L 89.695 -139.437 L 128.85 -139.437 C 127.851 -135.442 126.652 -131.447 125.054 -127.451 L 96.887 -127.451 Z M 163.21 -33.96 L 116.464 -33.96 L 116.464 -49.542 L 163.21 -49.542 L 163.21 -33.96 Z M 116.464 -65.524 L 116.464 -80.506 L 163.21 -80.506 L 163.21 -65.524 L 116.464 -65.524 Z M 116.464 -96.487 L 116.464 -110.671 L 163.21 -110.671 L 163.21 -96.487 L 116.464 -96.487 Z M 29.366 -131.447 L 14.183 -121.858 C 23.772 -112.669 32.362 -104.079 39.554 -95.888 L 6.992 -95.888 L 6.992 -76.711 L 34.56 -76.711 L 34.56 -4.195 C 34.56 0 32.962 2.197 29.965 2.197 C 24.571 2.197 18.978 1.798 12.985 0.999 L 17.18 19.777 L 36.757 19.777 C 48.344 19.777 54.337 13.384 54.337 0.799 L 54.337 -76.711 L 69.918 -76.711 C 67.721 -67.521 65.124 -59.73 62.128 -53.138 L 78.508 -46.546 C 82.504 -55.335 86.1 -67.521 89.096 -83.303 L 89.096 -95.888 L 61.928 -95.888 C 59.93 -98.685 57.533 -101.681 54.736 -104.878 C 63.925 -115.066 72.715 -127.451 81.105 -142.234 L 81.105 -157.816 L 13.584 -157.816 L 13.584 -139.437 L 59.73 -139.437 C 54.536 -131.447 49.143 -124.055 43.349 -117.463 C 39.154 -121.858 34.56 -126.652 29.366 -131.447 Z M 209.834 -157.017 L 209.834 -142.234 L 231.609 -142.234 L 231.609 -137.24 L 221.221 -139.038 C 218.025 -127.451 212.232 -118.062 203.841 -111.27 L 214.829 -97.686 C 218.225 -100.483 221.421 -103.879 224.417 -107.475 L 224.417 -84.102 L 266.768 -84.102 L 268.166 -79.507 L 276.357 -79.507 C 278.354 -79.707 280.552 -79.907 282.749 -80.306 C 283.948 -78.708 284.947 -76.91 285.946 -74.913 L 208.636 -74.913 L 208.636 -60.33 L 382.233 -60.33 L 382.233 -74.913 L 306.122 -74.913 C 304.524 -78.908 302.726 -82.704 301.128 -86.1 L 291.739 -84.701 C 292.738 -85.5 293.537 -86.499 294.336 -87.698 C 297.133 -92.292 298.731 -103.479 299.13 -121.458 L 309.119 -108.873 C 312.714 -112.069 316.31 -115.665 319.506 -119.66 C 321.904 -115.066 325.3 -110.671 329.295 -106.476 C 322.103 -102.081 312.914 -98.685 302.127 -96.487 L 309.718 -79.707 C 323.102 -82.903 334.489 -87.698 343.878 -94.49 C 352.668 -88.697 363.255 -83.702 375.841 -79.507 L 385.23 -95.888 C 374.243 -99.084 364.854 -102.88 357.063 -107.275 C 363.255 -115.665 367.65 -125.653 370.247 -137.24 L 381.035 -137.24 L 381.035 -154.02 L 336.487 -154.02 C 337.286 -156.617 337.885 -159.414 338.684 -162.211 L 319.906 -165.407 C 316.31 -148.826 309.518 -135.242 299.33 -124.854 L 299.33 -132.246 L 237.003 -132.246 C 237.202 -133.045 237.402 -134.044 237.802 -135.242 L 248.789 -135.242 L 248.789 -142.234 L 265.37 -142.234 L 265.37 -135.242 L 282.55 -135.242 L 282.55 -142.234 L 304.924 -142.234 L 304.924 -157.017 L 282.55 -157.017 L 282.55 -164.608 L 265.37 -164.608 L 265.37 -157.017 L 248.789 -157.017 L 248.789 -164.608 L 231.609 -164.608 L 231.609 -157.017 L 209.834 -157.017 Z M 268.766 -92.492 L 268.766 -113.068 L 228.413 -113.068 C 229.412 -114.866 230.41 -116.864 231.609 -118.861 L 280.352 -118.861 C 280.152 -107.674 279.753 -100.683 278.954 -97.486 C 277.955 -94.49 275.758 -92.892 272.561 -92.492 L 268.766 -92.492 Z M 253.583 -94.29 L 239.6 -94.29 L 239.6 -102.68 L 253.583 -102.68 L 253.583 -94.29 Z M 330.094 -137.24 L 352.668 -137.24 C 350.67 -129.849 347.074 -123.256 342.28 -117.463 C 336.287 -122.857 331.892 -128.85 329.295 -135.642 C 329.495 -136.041 329.695 -136.641 330.094 -137.24 Z M 232.808 -54.337 L 232.808 -42.55 L 359.66 -42.55 L 359.66 -54.337 L 232.808 -54.337 Z M 232.808 -36.358 L 232.808 -24.571 L 359.66 -24.571 L 359.66 -36.358 L 232.808 -36.358 Z M 367.251 -17.579 L 225.616 -17.579 L 225.616 22.374 L 245.992 22.374 L 245.992 17.18 L 347.074 17.18 L 347.074 22.374 L 367.251 22.374 L 367.251 -17.579 Z M 245.992 3.995 L 245.992 -4.395 L 347.074 -4.395 L 347.074 3.995 L 245.992 3.995 Z" transform="matrix(0.090103, 0, 0, 0.090105, 28.5, 60.335953)" style="fill: url(#grey);"></path>
</svg>