<svg
    version="1.1"
    xmlns="http://www.w3.org/2000/svg"
    xmlns:xlink="http://www.w3.org/1999/xlink"
    width="64"
    height="64"
    viewbox="0 0 64 64">
    <defs>
      <linearGradient id="num" gradientTransform="rotate(90)">
        <stop offset="20%"  stop-color="#FF7F8C"/>
        <stop offset="80%" stop-color="#FF0019"/>
      </linearGradient>
      <linearGradient id="polygon" gradientTransform="rotate(90)">
        <stop offset="20%"  stop-color="#999999"/>
        <stop offset="80%" stop-color="#606060"/>
      </linearGradient>
    </defs>
<polygon fill="url(#polygon)" points="34.7 28.795 23.025 28.795 23.025 17.1 14.392 17.1 14.392 28.795 2.7 28.795 2.7 37.42 14.392 37.42 14.392 49.1 23.025 49.1 23.025 37.42 34.7 37.42 34.7 28.795"></polygon>
<path fill="url(#num)" stroke="url(#num)" stroke-linejoin="round" stroke-linecap="round" stroke-width="1" d="M 45.9 47 L 42.7 47 L 42.7 28.703 C 41.791 29.445 40.759 30.105 39.628 30.67 C 38.59 31.243 37.474 31.74 36.3 32.157 L 36.3 29.378 C 38.042 28.641 39.614 27.715 40.956 26.633 C 42.15 25.715 43.108 24.655 43.788 23.5 L 45.9 23.5 L 45.9 47 Z"></path>
<path fill="url(#num)" stroke="url(#num)" stroke-linejoin="round" stroke-linecap="round" stroke-width="1" d="M 49.81 35.239 C 49.746 33.024 49.998 30.809 50.561 28.65 C 50.93 27.231 51.707 25.921 52.815 24.843 C 53.795 23.952 55.152 23.465 56.557 23.502 C 57.595 23.484 58.616 23.743 59.486 24.246 C 60.375 24.792 61.091 25.533 61.561 26.397 C 62.15 27.469 62.578 28.606 62.834 29.776 C 63.184 31.58 63.338 33.41 63.292 35.239 C 63.351 37.444 63.099 39.646 62.541 41.795 C 62.182 43.229 61.409 44.556 60.3 45.647 C 59.314 46.538 57.954 47.028 56.545 46.999 C 54.607 47.031 52.806 46.123 51.847 44.634 C 50.489 42.719 49.81 39.587 49.81 35.239 M 52.356 35.239 C 52.356 38.994 52.755 41.51 53.553 42.786 C 54.055 43.856 55.199 44.582 56.507 44.656 C 57.808 44.577 58.947 43.853 59.447 42.786 C 60.244 41.539 60.644 39.027 60.644 35.251 C 60.644 31.474 60.249 28.957 59.46 27.704 C 58.951 26.628 57.796 25.903 56.481 25.834 C 55.263 25.856 54.168 26.496 53.668 27.478 C 52.827 28.898 52.407 31.485 52.407 35.239"></path>
</svg>