<svg
    version="1.1"
    xmlns="http://www.w3.org/2000/svg"
    xmlns:xlink="http://www.w3.org/1999/xlink"
    width="64"
    height="64"
    viewbox="0 0 64 64">
<rect width="100%" height="100%" fill="white"/>
<polygon fill="#040000" points="3.7 49 38.9 49 38.9 41.362 26.384 41.362 26.384 19.7 15.542 19.7 15.542 41.362 3.7 41.362 3.7 49"></polygon>
<path fill="#040000" stroke="#040000" stroke-linejoin="round" stroke-linecap="round" stroke-width="1" d="M 43 41.356 L 46.569 40.977 C 46.772 42.246 47.486 43.441 48.62 44.412 C 49.564 45.105 50.853 45.485 52.189 45.463 C 53.775 45.471 55.29 44.978 56.341 44.106 C 57.468 43.181 58.067 41.972 58.009 40.733 C 58.044 39.558 57.443 38.421 56.341 37.568 C 55.299 36.754 53.828 36.307 52.305 36.345 C 51.523 36.377 50.751 36.48 50.004 36.651 L 50.404 34.207 L 50.971 34.207 C 52.432 34.221 53.863 33.896 55.057 33.278 C 56.293 32.607 56.971 31.518 56.858 30.393 C 56.9 29.447 56.426 28.528 55.541 27.839 C 54.672 27.173 53.463 26.805 52.205 26.825 C 50.915 26.8 49.669 27.172 48.77 27.851 C 47.723 28.707 47.081 29.787 46.936 30.931 L 43.367 30.442 C 43.65 28.775 44.696 27.229 46.335 26.055 C 47.891 25.016 49.936 24.46 52.039 24.502 C 53.541 24.495 55.022 24.769 56.341 25.297 C 57.637 25.797 58.709 26.561 59.426 27.497 C 60.117 28.396 60.479 29.411 60.477 30.442 C 60.492 31.393 60.145 32.328 59.476 33.143 C 58.761 33.983 57.73 34.654 56.508 35.074 C 58.11 35.338 59.523 36.025 60.477 37.005 C 61.462 38.088 61.959 39.371 61.894 40.672 C 61.949 42.559 60.957 44.38 59.143 45.719 C 57.32 47.099 54.79 47.853 52.172 47.797 C 49.826 47.847 47.553 47.198 45.868 46.001 C 44.167 44.763 43.147 43.11 43 41.356"></path>
</svg>