<svg
    version="1.1"
    xmlns="http://www.w3.org/2000/svg"
    xmlns:xlink="http://www.w3.org/1999/xlink"
    width="64"
    height="64"
    viewbox="0 0 64 64">
    <defs>
      <linearGradient id="grey" gradientTransform="rotate(90)">
        <stop offset="20%"  stop-color="#999999"/>
        <stop offset="80%" stop-color="#606060"/>
      </linearGradient>
    </defs>
<polygon fill="url(#grey)" points="18.659 33.5 2.1 33.5 10.388 25.245 18.659 17 26.929 25.245 35.2 33.5 18.659 33.5"></polygon>
<path fill="url(#grey)" stroke="url(#grey)" stroke-linejoin="round" stroke-linecap="round" stroke-width="1" d="M 47.554 25.767 C 46.245 25.416 45.118 24.766 44.335 23.914 C 43.615 23.043 43.253 22.037 43.291 21.017 C 43.237 19.429 44.037 17.892 45.518 16.743 C 47.066 15.568 49.216 14.935 51.432 15.005 C 53.68 14.936 55.858 15.582 57.416 16.782 C 58.914 17.941 59.726 19.492 59.679 21.094 C 59.71 22.088 59.355 23.067 58.652 23.914 C 57.909 24.752 56.832 25.399 55.574 25.767 C 57.193 26.17 58.583 26.963 59.521 28.02 C 60.425 29.143 60.867 30.436 60.792 31.74 C 60.858 33.599 59.933 35.402 58.218 36.761 C 56.464 38.13 53.996 38.87 51.449 38.795 C 48.901 38.869 46.432 38.122 44.683 36.748 C 42.936 35.352 42.01 33.5 42.109 31.599 C 42.029 30.234 42.522 28.886 43.518 27.737 C 44.467 26.706 45.888 25.965 47.519 25.651 M 45.693 31.663 C 45.693 32.477 45.931 33.28 46.389 34.019 C 46.825 34.755 47.561 35.371 48.492 35.782 C 49.403 36.196 50.45 36.415 51.52 36.413 C 53.089 36.455 54.602 35.985 55.66 35.126 C 56.784 34.2 57.378 32.985 57.312 31.74 C 57.354 30.479 56.73 29.255 55.574 28.329 C 54.49 27.467 52.952 26.997 51.363 27.041 C 49.81 26.999 48.31 27.471 47.275 28.329 C 46.189 29.249 45.616 30.442 45.675 31.663 M 46.875 20.927 C 46.809 21.914 47.258 22.881 48.127 23.631 C 49.015 24.348 50.295 24.731 51.607 24.672 C 52.843 24.688 54.029 24.308 54.86 23.631 C 55.719 22.927 56.174 22.003 56.129 21.055 C 56.143 20.105 55.671 19.185 54.807 18.481 C 53.967 17.78 52.751 17.388 51.484 17.413 C 50.22 17.383 49 17.765 48.144 18.456 C 47.308 19.127 46.853 20.012 46.875 20.927"></path>
<polygon fill="url(#grey)" points="3.7 61.9 3.7 51.2 6.188 51.2 11.425 58.391 11.425 51.2 13.8 51.2 13.8 61.9 11.238 61.9 6.075 54.866 6.075 61.9 3.7 61.9"></polygon>
<polygon fill="url(#grey)" points="17.013 61.9 14.7 51.2 16.75 51.2 18.228 58.548 20.043 51.2 22.444 51.2 24.157 58.674 25.68 51.2 27.7 51.2 25.314 61.9 23.132 61.9 21.2 53.891 19.224 61.9 17.013 61.9"></polygon>
<path fill="url(#grey)" d="M 34.622 48.076 L 29.3 48.076 L 29.3 46.5 L 45.8 46.5 L 45.8 48.076 L 40.106 48.076 L 40.106 50.222 L 44.754 50.222 L 44.754 61.8 L 43.058 61.8 L 43.058 60.681 L 32.042 60.681 L 32.042 61.8 L 30.323 61.8 L 30.323 50.222 L 34.622 50.222 L 34.622 48.076 Z M 43.058 56.936 L 40.525 56.936 C 39.965 56.991 39.402 56.845 38.944 56.525 C 38.591 56.069 38.424 55.497 38.48 54.926 L 38.48 51.684 L 36.272 51.684 L 36.272 51.98 C 36.553 54.458 35.496 56.902 33.483 58.42 L 32.112 57.164 C 33.848 55.984 34.805 53.979 34.622 51.912 L 34.622 51.684 L 32.065 51.684 L 32.065 59.219 L 43.058 59.219 L 43.058 56.936 Z M 36.272 50.222 L 38.596 50.222 L 38.596 48.076 L 36.272 48.076 L 36.272 50.222 Z M 43.081 51.684 L 40.106 51.684 L 40.106 54.653 C 40.106 55.132 40.339 55.383 40.804 55.383 L 43.127 55.383 L 43.081 51.684 Z"></path>
<path fill="url(#grey)" d="M 53.452 58.232 L 55.335 57.481 L 55.335 59.312 C 52.718 60.361 50.017 61.192 47.265 61.8 L 46.7 59.969 C 48.403 59.695 50.086 59.303 51.735 58.796 L 51.735 52.74 L 47.029 52.74 L 47.029 51.003 L 51.735 51.003 L 51.735 45.3 L 53.452 45.3 L 53.452 58.232 Z M 57.923 58.608 C 57.923 59.195 57.923 59.547 58.181 59.664 C 58.452 59.796 58.753 59.852 59.052 59.828 L 60.511 59.828 C 61.052 59.828 61.334 59.594 61.405 59.148 C 61.475 58.702 61.405 57.927 61.405 56.801 L 61.405 55.791 L 63.169 56.472 C 63.282 57.869 63.082 59.272 62.581 60.58 C 62.172 61.192 61.459 61.535 60.722 61.471 L 58.37 61.471 C 57.737 61.521 57.109 61.354 56.582 61.002 C 56.097 60.385 55.883 59.596 55.993 58.819 L 55.993 45.347 L 57.734 45.347 L 57.734 51.661 C 59.198 51.09 60.562 50.299 61.781 49.314 L 63.052 50.651 C 61.428 51.926 59.628 52.961 57.711 53.726 L 57.923 58.608 Z"></path>
</svg>