<svg
    version="1.1"
    xmlns="http://www.w3.org/2000/svg"
    xmlns:xlink="http://www.w3.org/1999/xlink"
    width="64"
    height="64"
    viewbox="0 0 64 64">
    <defs>
      <linearGradient id="polygon" gradientTransform="rotate(90)">
        <stop offset="20%"  stop-color="#808080"/>
        <stop offset="80%" stop-color="#555555"/>
      </linearGradient>
      <linearGradient id="num" gradientTransform="rotate(90)">
        <stop offset="20%"  stop-color="#84BAFF"/>
        <stop offset="80%" stop-color="#328CFF"/>
      </linearGradient>
      <linearGradient id="text" gradientTransform="rotate(90)">
        <stop offset="20%"  stop-color="#FFEB7F"/>
        <stop offset="80%" stop-color="#FFD700"/>
      </linearGradient>
    </defs>
<polygon fill="url(#polygon)" points="18.659 20.7 2.1 20.7 10.38 12.469 18.659 4.2 26.939 12.469 35.2 20.7 18.659 20.7"></polygon>
<polygon fill="url(#polygon)" points="18.659 38.2 2.1 38.2 10.38 29.95 18.659 21.7 26.939 29.95 35.2 38.2 18.659 38.2"></polygon>
<path fill="url(#num)" stroke="url(#num)" stroke-linejoin="round" stroke-linecap="round" stroke-width="1" d="M 47.515 25.767 C 46.206 25.414 45.081 24.767 44.299 23.913 C 43.591 23.04 43.24 22.034 43.291 21.017 C 43.226 19.433 44.014 17.896 45.481 16.743 C 47.032 15.564 49.187 14.932 51.409 15.005 C 53.654 14.936 55.832 15.582 57.389 16.782 C 58.885 17.94 59.696 19.491 59.649 21.094 C 59.681 22.088 59.324 23.066 58.624 23.913 C 57.855 24.761 56.75 25.409 55.46 25.767 C 57.078 26.168 58.469 26.963 59.406 28.02 C 60.35 29.132 60.833 30.425 60.797 31.74 C 60.865 33.599 59.94 35.402 58.224 36.76 C 56.47 38.128 54.005 38.87 51.461 38.794 C 48.908 38.872 46.434 38.125 44.681 36.747 C 42.936 35.35 42.011 33.499 42.108 31.598 C 42.03 30.235 42.522 28.886 43.517 27.736 C 44.464 26.705 45.884 25.965 47.515 25.651 M 45.672 31.662 C 45.672 32.476 45.91 33.279 46.368 34.018 C 46.809 34.762 47.559 35.384 48.506 35.795 C 49.415 36.209 50.462 36.427 51.531 36.425 C 53.097 36.465 54.61 35.995 55.668 35.138 C 56.751 34.195 57.301 32.977 57.198 31.74 C 57.238 30.478 56.616 29.255 55.46 28.328 C 54.378 27.465 52.842 26.995 51.253 27.041 C 49.699 26.999 48.202 27.47 47.167 28.328 C 46.083 29.25 45.511 30.441 45.568 31.662 M 46.768 20.927 C 46.726 21.922 47.206 22.89 48.106 23.63 C 48.974 24.33 50.213 24.711 51.496 24.673 C 52.755 24.702 53.97 24.321 54.817 23.63 C 55.682 22.928 56.143 22.005 56.103 21.055 C 56.136 20.082 55.663 19.137 54.782 18.417 C 53.933 17.727 52.72 17.346 51.461 17.374 C 50.196 17.346 48.977 17.725 48.124 18.417 C 47.244 19.088 46.757 19.991 46.768 20.927"></path>
<polygon fill="url(#text)" points="3.7 61.9 3.7 51.2 6.188 51.2 11.425 58.391 11.425 51.2 13.8 51.2 13.8 61.9 11.238 61.9 6.075 54.851 6.075 61.9 3.7 61.9"></polygon>
<polygon fill="url(#text)" points="14.7 61.9 14.7 51.2 23.571 51.2 23.571 53.01 17.116 53.01 17.116 55.37 23.13 55.37 23.13 57.179 17.116 57.179 17.116 60.09 23.8 60.09 23.8 61.9 14.7 61.9"></polygon>
<path fill="url(#text)" d="M 38.375 56.277 L 38.375 61.8 L 36.678 61.8 L 36.678 56.277 C 35.051 58.451 32.789 60.078 30.196 60.938 L 29.3 59.539 C 31.497 59.078 33.486 57.936 34.981 56.277 L 31.115 56.277 L 31.115 49.285 L 36.678 49.285 L 36.678 48.283 L 29.606 48.283 L 29.606 46.698 L 36.678 46.698 L 36.678 45.3 L 38.399 45.3 L 38.399 46.698 L 45.635 46.698 L 45.635 48.283 L 38.375 48.283 L 38.375 49.285 L 44.268 49.285 L 44.268 56.277 L 40.049 56.277 C 41.623 57.852 43.617 58.952 45.8 59.446 L 44.881 61.078 C 42.3 60.11 40.046 58.449 38.375 56.277 M 36.654 50.8 L 32.718 50.8 L 32.718 52.058 L 36.654 52.058 L 36.654 50.8 Z M 36.654 53.387 L 32.718 53.387 L 32.718 54.785 L 36.654 54.785 L 36.654 53.387 Z M 42.665 50.8 L 38.375 50.8 L 38.375 52.058 L 42.689 52.058 L 42.665 50.8 Z M 42.665 53.387 L 38.375 53.387 L 38.375 54.785 L 42.689 54.785 L 42.665 53.387 Z"></path>
<path fill="url(#text)" d="M 53.386 58.209 L 55.249 57.458 L 55.249 59.289 C 52.659 60.345 49.987 61.185 47.259 61.8 L 46.7 59.969 C 48.387 59.695 50.052 59.303 51.685 58.796 L 51.685 52.74 L 47.026 52.74 L 47.026 51.003 L 51.685 51.003 L 51.685 45.3 L 53.409 45.3 L 53.386 58.209 Z M 57.812 58.584 C 57.812 59.171 57.812 59.523 58.068 59.641 C 58.336 59.772 58.634 59.828 58.93 59.805 L 60.537 59.805 C 61.066 59.805 61.36 59.577 61.423 59.124 C 61.423 58.655 61.423 57.904 61.423 56.777 L 61.423 55.768 L 63.17 56.449 C 63.281 57.845 63.083 59.249 62.587 60.556 C 62.182 61.169 61.476 61.511 60.747 61.448 L 58.417 61.448 C 57.791 61.497 57.169 61.331 56.647 60.979 C 56.167 60.361 55.955 59.573 56.065 58.796 L 56.065 45.347 L 57.788 45.347 L 57.788 51.661 C 59.235 51.09 60.586 50.299 61.795 49.314 L 63.053 50.651 C 61.446 51.928 59.666 52.963 57.765 53.726 L 57.812 58.584 Z"></path>
</svg>