<svg
    version="1.1"
    xmlns="http://www.w3.org/2000/svg"
    xmlns:xlink="http://www.w3.org/1999/xlink"
    width="64"
    height="64"
    viewbox="0 0 64 64">
    <defs>
      <linearGradient id="grey" gradientTransform="rotate(90)">
        <stop offset="20%"  stop-color="#999999"/>
        <stop offset="80%" stop-color="#606060"/>
      </linearGradient>
    </defs>
<polygon fill="url(#grey)" points="18.659 4.2 35.2 4.2 26.939 12.45 18.659 20.7 10.38 12.45 2.1 4.2 18.659 4.2"></polygon>
<polygon fill="url(#grey)" points="18.659 21.7 35.2 21.7 26.939 29.95 18.659 38.2 10.38 29.95 2.1 21.7 18.659 21.7"></polygon>
<path fill="url(#grey)" stroke="url(#grey)" stroke-linejoin="round" stroke-linecap="round" stroke-width="1" d="M 47.52 25.767 C 46.21 25.414 45.084 24.767 44.301 23.913 C 43.568 23.046 43.193 22.039 43.222 21.017 C 43.177 19.426 43.991 17.887 45.484 16.743 C 47.036 15.564 49.194 14.932 51.418 15.005 C 53.659 14.94 55.831 15.586 57.386 16.782 C 58.883 17.94 59.695 19.491 59.648 21.094 C 59.68 22.088 59.325 23.066 58.622 23.913 C 57.865 24.758 56.768 25.406 55.49 25.767 C 57.11 26.17 58.5 26.963 59.439 28.02 C 60.372 29.136 60.844 30.428 60.797 31.74 C 60.865 33.599 59.939 35.402 58.221 36.76 C 56.467 38.129 54 38.87 51.453 38.794 C 48.905 38.871 46.436 38.13 44.684 36.76 C 42.937 35.363 42.011 33.512 42.109 31.611 C 42.029 30.247 42.521 28.899 43.518 27.749 C 44.466 26.718 45.888 25.978 47.52 25.664 M 45.676 31.663 C 45.676 32.476 45.914 33.279 46.372 34.018 C 46.796 34.755 47.52 35.376 48.442 35.795 C 49.352 36.209 50.4 36.427 51.47 36.425 C 53.038 36.468 54.553 35.997 55.611 35.138 C 56.734 34.206 57.32 32.987 57.247 31.74 C 57.287 30.478 56.664 29.255 55.507 28.329 C 54.423 27.466 52.886 26.996 51.296 27.041 C 49.742 26.999 48.242 27.47 47.207 28.329 C 46.119 29.249 45.549 30.441 45.606 31.663 M 46.824 20.927 C 46.768 21.917 47.23 22.885 48.112 23.63 C 48.98 24.33 50.221 24.711 51.505 24.673 C 52.765 24.702 53.981 24.321 54.828 23.63 C 55.688 22.927 56.144 22.003 56.099 21.055 C 56.112 20.104 55.639 19.185 54.776 18.481 C 53.934 17.779 52.719 17.389 51.453 17.412 C 50.186 17.384 48.966 17.764 48.112 18.455 C 47.268 19.126 46.807 20.011 46.824 20.927"></path>
<path fill="url(#grey)" d="M 3.755 58.364 L 6.179 58.167 C 6.252 58.746 6.569 59.283 7.072 59.686 C 7.588 60.029 8.237 60.202 8.895 60.172 C 9.543 60.211 10.189 60.061 10.717 59.747 C 11.096 59.516 11.326 59.151 11.337 58.759 C 11.344 58.533 11.253 58.311 11.082 58.137 C 10.834 57.929 10.526 57.777 10.189 57.696 C 9.897 57.616 9.228 57.464 8.184 57.241 C 7.161 57.087 6.193 56.739 5.359 56.223 C 4.622 55.706 4.201 54.944 4.21 54.142 C 4.196 53.603 4.382 53.073 4.739 52.623 C 5.114 52.151 5.656 51.785 6.288 51.575 C 7.059 51.319 7.883 51.196 8.712 51.211 C 9.966 51.136 11.209 51.443 12.212 52.076 C 13.003 52.655 13.455 53.492 13.451 54.37 L 10.954 54.37 C 10.876 53.964 10.632 53.594 10.262 53.322 C 9.8 53.062 9.248 52.939 8.694 52.973 C 8.093 52.935 7.493 53.058 6.981 53.322 C 6.727 53.465 6.576 53.705 6.58 53.96 C 6.58 54.203 6.715 54.432 6.944 54.583 C 7.652 54.929 8.43 55.161 9.241 55.266 C 10.172 55.424 11.078 55.675 11.938 56.01 C 12.5 56.25 12.972 56.612 13.305 57.058 C 13.652 57.555 13.823 58.124 13.798 58.699 C 13.799 59.286 13.597 59.86 13.214 60.354 C 12.81 60.872 12.225 61.275 11.537 61.508 C 10.677 61.78 9.76 61.909 8.84 61.888 C 7.531 61.967 6.233 61.644 5.195 60.977 C 4.309 60.287 3.775 59.341 3.7 58.334"></path>
<polygon fill="url(#grey)" points="14.7 61.9 14.7 51.2 23.553 51.2 23.553 53.01 17.116 53.01 17.116 55.37 23.13 55.37 23.13 57.179 17.116 57.179 17.116 60.09 23.8 60.09 23.8 61.9 14.7 61.9"></polygon>
<path fill="url(#grey)" d="M 38.399 56.284 L 38.399 61.8 L 36.678 61.8 L 36.678 56.284 C 35.077 58.516 32.812 60.201 30.196 61.102 L 29.3 59.636 C 31.509 59.149 33.5 57.974 34.981 56.284 L 31.115 56.284 L 31.115 49.303 L 36.678 49.303 L 36.678 48.302 L 29.606 48.302 L 29.606 46.696 L 36.678 46.696 L 36.678 45.3 L 38.399 45.3 L 38.399 46.696 L 45.635 46.696 L 45.635 48.279 L 38.399 48.279 L 38.399 49.28 L 44.268 49.28 L 44.268 56.261 L 40.049 56.261 C 41.607 57.876 43.603 59.017 45.8 59.543 L 44.881 61.172 C 42.262 60.192 39.983 58.498 38.304 56.284 M 36.678 50.885 L 32.718 50.885 L 32.718 52.142 L 36.678 52.142 L 36.678 50.885 Z M 36.678 53.469 L 32.718 53.469 L 32.718 54.842 L 36.678 54.842 L 36.678 53.469 Z M 42.689 50.885 L 38.399 50.885 L 38.399 52.142 L 42.689 52.142 L 42.689 50.885 Z M 42.689 53.469 L 38.399 53.469 L 38.399 54.842 L 42.689 54.842 L 42.689 53.469 Z"></path>
<path fill="url(#grey)" d="M 49.235 51.607 L 49.235 61.8 L 47.553 61.8 L 47.553 50.164 L 54.166 50.164 L 54.166 48.512 L 46.7 48.512 L 46.7 46.929 L 54.051 46.929 L 54.051 45.3 L 55.918 45.3 L 55.918 46.813 L 63.2 46.813 L 63.2 48.395 L 55.918 48.395 L 55.918 50.048 L 62.532 50.048 L 62.532 59.496 C 62.587 60.052 62.474 60.611 62.209 61.102 C 61.85 61.442 61.361 61.605 60.872 61.544 L 58.914 61.544 L 58.499 59.938 L 60.181 59.938 C 60.596 59.938 60.803 59.752 60.803 59.38 L 60.803 51.583 L 49.235 51.607 Z M 56.148 53.934 C 56.526 53.233 56.842 52.503 57.093 51.746 L 58.591 52.235 C 58.368 52.819 58.107 53.387 57.808 53.934 L 59.951 53.934 L 59.951 55.33 L 55.918 55.33 L 55.918 56.843 L 59.605 56.843 L 59.605 58.239 L 55.918 58.239 L 55.918 61.311 L 54.282 61.311 L 54.282 58.193 L 50.41 58.193 L 50.41 56.796 L 54.236 56.796 L 54.236 55.284 L 50.134 55.284 L 50.134 53.887 L 52.438 53.887 C 52.258 53.266 51.97 52.684 51.585 52.165 L 53.129 51.746 C 53.494 52.428 53.786 53.145 54.005 53.887 L 56.148 53.934 Z"></path>
</svg>