<svg
    version="1.1"
    xmlns="http://www.w3.org/2000/svg"
    xmlns:xlink="http://www.w3.org/1999/xlink"
    width="64"
    height="64"
    viewbox="0 0 64 64">
    <defs>
      <linearGradient id="polygon" gradientTransform="rotate(90)">
        <stop offset="20%"  stop-color="#808080"/>
        <stop offset="80%" stop-color="#555555"/>
      </linearGradient>
      <linearGradient id="num" gradientTransform="rotate(90)">
        <stop offset="20%"  stop-color="#84BAFF"/>
        <stop offset="80%" stop-color="#328CFF"/>
      </linearGradient>
      <linearGradient id="text" gradientTransform="rotate(90)">
        <stop offset="20%"  stop-color="#FFEB7F"/>
        <stop offset="80%" stop-color="#FFD700"/>
      </linearGradient>
    </defs>
<polygon fill="url(#polygon)" points="18.65 17 35.2 17 26.925 25.25 18.65 33.5 10.375 25.25 2.1 17 18.65 17"></polygon>
<path fill="url(#num)" stroke="url(#num)" stroke-linejoin="round" stroke-linecap="round" stroke-width="1" d="M 47.502 25.767 C 46.198 25.413 45.077 24.764 44.3 23.913 C 43.579 23.043 43.217 22.036 43.255 21.017 C 43.202 19.43 44.002 17.893 45.483 16.743 C 47.032 15.568 49.183 14.936 51.4 15.005 C 53.653 14.932 55.84 15.579 57.403 16.782 C 58.9 17.94 59.712 19.491 59.665 21.094 C 59.698 22.088 59.342 23.066 58.639 23.913 C 57.876 24.759 56.775 25.408 55.489 25.767 C 57.109 26.17 58.499 26.963 59.439 28.02 C 60.374 29.136 60.845 30.428 60.796 31.74 C 60.864 33.599 59.939 35.402 58.221 36.76 C 56.467 38.129 53.999 38.87 51.452 38.794 C 48.904 38.871 46.435 38.13 44.682 36.76 C 42.935 35.364 42.01 33.512 42.107 31.611 C 42.055 30.293 42.533 28.994 43.482 27.878 C 44.43 26.847 45.852 26.107 47.484 25.793 M 45.657 31.663 C 45.659 32.476 45.895 33.279 46.353 34.018 C 46.79 34.753 47.526 35.37 48.459 35.782 C 49.369 36.196 50.418 36.414 51.487 36.413 C 53.056 36.455 54.57 35.984 55.628 35.125 C 56.74 34.195 57.321 32.981 57.247 31.74 C 57.288 30.478 56.664 29.255 55.506 28.329 C 54.422 27.466 52.886 26.996 51.295 27.041 C 49.741 26.999 48.241 27.47 47.206 28.329 C 46.12 29.249 45.547 30.441 45.605 31.663 M 46.805 20.927 C 46.75 21.917 47.211 22.885 48.093 23.63 C 48.962 24.33 50.204 24.711 51.487 24.673 C 52.748 24.705 53.965 24.323 54.81 23.63 C 55.677 22.928 56.14 22.005 56.098 21.055 C 56.112 20.104 55.639 19.185 54.775 18.481 C 53.935 17.779 52.719 17.389 51.452 17.412 C 50.187 17.384 48.967 17.764 48.111 18.455 C 47.261 19.125 46.795 20.009 46.805 20.927"></path>
<path fill="url(#text)" d="M 3.7 58.349 L 6.115 58.152 C 6.192 58.729 6.506 59.267 7.005 59.671 C 7.521 60.008 8.168 60.175 8.821 60.141 C 9.468 60.181 10.111 60.031 10.637 59.716 C 11.008 59.482 11.229 59.118 11.237 58.729 C 11.244 58.503 11.153 58.281 10.983 58.106 C 10.761 57.895 10.479 57.734 10.165 57.635 C 9.875 57.555 9.208 57.408 8.168 57.195 C 7.149 57.042 6.184 56.694 5.353 56.177 C 4.613 55.681 4.176 54.935 4.154 54.142 C 4.152 53.6 4.348 53.07 4.717 52.623 C 5.091 52.151 5.63 51.785 6.261 51.575 C 7.029 51.319 7.85 51.196 8.676 51.211 C 9.926 51.136 11.164 51.443 12.163 52.076 C 12.951 52.655 13.402 53.492 13.398 54.37 L 10.91 54.37 C 10.861 53.926 10.614 53.515 10.22 53.216 C 9.76 52.956 9.21 52.833 8.658 52.866 C 8.06 52.839 7.47 52.973 6.969 53.246 C 6.717 53.389 6.566 53.629 6.569 53.884 C 6.569 54.127 6.704 54.356 6.933 54.507 C 7.635 54.854 8.413 55.087 9.221 55.19 C 10.143 55.35 11.039 55.6 11.891 55.934 C 12.45 56.174 12.92 56.536 13.253 56.982 C 13.634 57.496 13.825 58.094 13.797 58.699 C 13.794 59.288 13.585 59.862 13.198 60.354 C 12.8 60.877 12.216 61.281 11.527 61.508 C 10.67 61.782 9.757 61.911 8.84 61.888 C 7.536 61.967 6.243 61.644 5.207 60.977 C 4.325 60.287 3.793 59.341 3.718 58.334"></path>
<polygon fill="url(#text)" points="17.015 61.9 14.7 51.2 16.752 51.2 18.231 58.548 20.034 51.2 22.453 51.2 24.169 58.674 25.677 51.2 27.7 51.2 25.312 61.9 23.128 61.9 21.206 53.906 19.229 61.9 17.015 61.9"></polygon>
<path fill="url(#text)" d="M 34.622 48.076 L 29.3 48.076 L 29.3 46.5 L 45.8 46.5 L 45.8 48.076 L 40.106 48.076 L 40.106 50.222 L 44.754 50.222 L 44.754 61.8 L 43.058 61.8 L 43.058 60.681 L 32.042 60.681 L 32.042 61.8 L 30.323 61.8 L 30.323 50.222 L 34.622 50.222 L 34.622 48.076 Z M 43.058 56.936 L 40.525 56.936 C 39.965 56.991 39.402 56.845 38.944 56.525 C 38.591 56.069 38.424 55.497 38.48 54.926 L 38.48 51.684 L 36.272 51.684 L 36.272 51.98 C 36.553 54.458 35.496 56.902 33.483 58.42 L 32.112 57.164 C 33.848 55.984 34.805 53.979 34.622 51.912 L 34.622 51.684 L 32.065 51.684 L 32.065 59.219 L 43.058 59.219 L 43.058 56.936 Z M 36.272 50.222 L 38.596 50.222 L 38.596 48.076 L 36.272 48.076 L 36.272 50.222 Z M 43.081 51.684 L 40.106 51.684 L 40.106 54.653 C 40.106 55.132 40.339 55.383 40.804 55.383 L 43.127 55.383 L 43.081 51.684 Z"></path>
<path fill="url(#text)" d="M 49.174 51.664 L 49.174 61.8 L 47.447 61.8 L 47.447 50.229 L 54.145 50.229 L 54.145 48.586 L 46.7 48.586 L 46.7 46.92 L 54.145 46.92 L 54.145 45.3 L 55.825 45.3 L 55.825 46.804 L 63.2 46.804 L 63.2 48.378 L 55.825 48.378 L 55.825 50.021 L 62.593 50.021 L 62.593 59.393 C 62.652 59.946 62.537 60.504 62.266 60.99 C 61.902 61.328 61.408 61.49 60.913 61.43 L 58.976 61.43 L 58.556 59.833 L 60.259 59.833 C 60.679 59.833 60.89 59.648 60.89 59.278 L 60.89 51.664 L 49.174 51.664 Z M 56.175 53.978 C 56.558 53.282 56.878 52.555 57.132 51.803 L 58.649 52.289 C 58.42 52.867 58.157 53.432 57.856 53.978 L 60.003 53.978 L 60.003 55.367 L 55.825 55.367 L 55.825 56.871 L 59.629 56.871 L 59.629 58.236 L 55.825 58.236 L 55.825 61.268 L 54.168 61.268 L 54.168 58.213 L 50.341 58.213 L 50.341 56.871 L 54.192 56.871 L 54.192 55.343 L 50.061 55.343 L 50.061 53.955 L 52.394 53.955 C 52.212 53.337 51.918 52.759 51.531 52.242 L 53.095 51.826 C 53.463 52.504 53.76 53.217 53.981 53.955 L 56.175 53.978 Z"></path>
</svg>