<svg
    version="1.1"
    xmlns="http://www.w3.org/2000/svg"
    xmlns:xlink="http://www.w3.org/1999/xlink"
    width="64"
    height="64"
    viewbox="0 0 64 64">
    <defs>
      <linearGradient id="grey" gradientTransform="rotate(90)">
        <stop offset="20%"  stop-color="#999999"/>
        <stop offset="80%" stop-color="#606060"/>
      </linearGradient>
    </defs>
<polygon fill="url(#grey)" points="21.359 15.5 39.5 15.5 30.421 24.3 21.359 33.1 12.279 24.3 3.2 15.5 21.359 15.5"></polygon>
<polygon fill="url(#grey)" points="21.359 50.7 3.2 50.7 12.279 41.891 21.359 33.1 30.421 41.891 39.5 50.7 21.359 50.7"></polygon>
<path fill="url(#grey)" stroke="url(#grey)" stroke-linejoin="round" stroke-linecap="round" stroke-width="1" d="M 43.801 42.134 L 47.209 41.923 C 47.331 42.926 47.912 43.886 48.887 44.689 C 49.679 45.254 50.837 45.571 52.045 45.552 C 53.096 45.563 54.122 45.352 54.953 44.955 C 55.824 44.525 56.52 43.977 56.987 43.35 C 57.608 42.489 58.051 41.581 58.308 40.651 C 58.666 39.506 58.846 38.343 58.843 37.177 C 58.843 37.056 58.843 36.856 58.843 36.613 C 58.176 37.488 57.171 38.248 55.917 38.826 C 54.764 39.371 53.353 39.666 51.902 39.666 C 49.436 39.64 47.152 38.851 45.818 37.565 C 44.032 35.939 43.154 33.997 43.32 32.033 C 43.186 30.042 44.099 28.076 45.925 26.435 C 48.574 24.015 54.045 23.579 57.594 25.506 C 59.282 26.431 60.516 27.631 61.162 28.969 C 62.099 31.086 62.508 33.28 62.376 35.474 C 62.483 37.85 62.074 40.223 61.162 42.532 C 60.582 44.04 59.35 45.421 57.594 46.526 C 56.088 47.419 54.077 47.912 51.991 47.897 C 49.866 47.944 47.82 47.401 46.407 46.415 C 44.824 45.197 43.912 43.697 43.801 42.134 M 58.397 31.945 C 58.507 30.585 57.94 29.236 56.773 28.084 C 55.947 27.222 54.464 26.683 52.848 26.656 C 51.126 26.686 49.549 27.263 48.673 28.183 C 47.422 29.367 46.797 30.763 46.888 32.177 C 46.833 33.457 47.459 34.714 48.673 35.75 C 49.586 36.598 51.115 37.111 52.758 37.122 C 54.396 37.122 55.924 36.604 56.809 35.75 C 57.965 34.615 58.52 33.284 58.397 31.945"></path>
</svg>