<?xml version="1.0" encoding="utf-8"?>
<!-- (c) ammap.com | SVG weather icons -->
<svg
    version="1.1"
    xmlns="http://www.w3.org/2000/svg"
    xmlns:xlink="http://www.w3.org/1999/xlink"
    width="64"
    height="64"
    viewbox="0 0 64 64">
    <defs>
        <linearGradient id="a" x1="19.64" x2="37.19" y1="18.96" y2="49.35" gradientUnits="userSpaceOnUse"><stop offset="0" stop-color="orange"/>
	</linearGradient>
    </defs>
    <g id="moon-waxing-crescent">
        <g transform="translate(20,15)">
            <g class="am-weather-moon-star-1">
                <polygon fill="orange" points="3.3,1.5 4,2.7 5.2,3.3 4,4 3.3,5.2 2.7,4 1.5,3.3 2.7,2.7" stroke="none" stroke-miterlimit="10"/>
            </g>
            <g class="am-weather-moon-star-2">
                <polygon fill="orange" points="3.3,1.5 4,2.7 5.2,3.3 4,4 3.3,5.2 2.7,4 1.5,3.3 2.7,2.7" stroke="none" stroke-miterlimit="10" transform="translate(25,10)"/>
            </g>
        </g>
    </g>
    <path fill="url(#a)" stroke="orange" stroke-linecap="round" stroke-linejoin="round" stroke-width=".5" d="M 36.715 18.212 C 36.152 18.01 35.571 17.838 34.979 17.7 L 35.037 17.736 C 43.457 24.947 36.956 36.865 24.772 36.579 L 24.7 36.579 C 25.221 36.844 25.766 37.08 26.327 37.283 C 35.312 40.549 45.257 34.644 44.226 26.654 C 43.749 22.947 40.885 19.728 36.715 18.212 Z"></path>
</svg>