<?xml version="1.0" encoding="utf-8"?>
<!-- (c) ammap.com | SVG weather icons -->
<svg
    version="1.1"
    xmlns="http://www.w3.org/2000/svg"
    xmlns:xlink="http://www.w3.org/1999/xlink"
    width="64"
    height="64"
    viewbox="0 0 64 64">
    <defs>
        <style type="text/css"><![CDATA[
/*
** MOON
*/
@keyframes am-weather-moon-star-1 {
  0% {
    opacity: 0;
  }

  100% {
    opacity: 1;
  }
}

.am-weather-moon-star-1 {
  -webkit-animation-name: am-weather-moon-star-1;
     -moz-animation-name: am-weather-moon-star-1;
      -ms-animation-name: am-weather-moon-star-1;
          animation-name: am-weather-moon-star-1;
  -webkit-animation-delay: 3s;
     -moz-animation-delay: 3s;
      -ms-animation-delay: 3s;
          animation-delay: 3s;
  -webkit-animation-duration: 5s;
     -moz-animation-duration: 5s;
      -ms-animation-duration: 5s;
          animation-duration: 5s;
  -webkit-animation-timing-function: linear;
     -moz-animation-timing-function: linear;
      -ms-animation-timing-function: linear;
          animation-timing-function: linear;
  -webkit-animation-iteration-count: infinite;
     -moz-animation-iteration-count: infinite;
      -ms-animation-iteration-count: infinite;
          animation-iteration-count: infinite;
}

@keyframes am-weather-moon-star-2 {
  0% {
    opacity: 0;
  }

  100% {
    opacity: 1;
  }
}

.am-weather-moon-star-2 {
  -webkit-animation-name: am-weather-moon-star-2;
     -moz-animation-name: am-weather-moon-star-2;
      -ms-animation-name: am-weather-moon-star-2;
          animation-name: am-weather-moon-star-2;
  -webkit-animation-delay: 5s;
     -moz-animation-delay: 5s;
      -ms-animation-delay: 5s;
          animation-delay: 5s;
  -webkit-animation-duration: 4s;
     -moz-animation-duration: 4s;
      -ms-animation-duration: 4s;
          animation-duration: 4s;
  -webkit-animation-timing-function: linear;
     -moz-animation-timing-function: linear;
      -ms-animation-timing-function: linear;
          animation-timing-function: linear;
  -webkit-animation-iteration-count: infinite;
     -moz-animation-iteration-count: infinite;
      -ms-animation-iteration-count: infinite;
          animation-iteration-count: infinite;
}


/*
** CLOUDS
*/
@keyframes am-weather-cloud-1 {
  0% {
    -webkit-transform: translate(0px,0px);
       -moz-transform: translate(0px,0px);
        -ms-transform: translate(0px,0px);
            transform: translate(0px,0px);
  }

  50% {
    -webkit-transform: translate(2px,0px);
       -moz-transform: translate(2px,0px);
        -ms-transform: translate(2px,0px);
            transform: translate(2px,0px);
  }

  100% {
    -webkit-transform: translate(0px,0px);
       -moz-transform: translate(0px,0px);
        -ms-transform: translate(0px,0px);
            transform: translate(0px,0px);
  }
}

.am-weather-cloud-1 {
  -webkit-animation-name: am-weather-cloud-1;
     -moz-animation-name: am-weather-cloud-1;
          animation-name: am-weather-cloud-1;
  -webkit-animation-duration: 7.5s;
     -moz-animation-duration: 7.5s;
          animation-duration: 7.5s;
  -webkit-animation-timing-function: linear;
     -moz-animation-timing-function: linear;
          animation-timing-function: linear;
  -webkit-animation-iteration-count: infinite;
     -moz-animation-iteration-count: infinite;
          animation-iteration-count: infinite;
}

@keyframes am-weather-cloud-2 {
  0% {
    -webkit-transform: translate(0px,0px);
       -moz-transform: translate(0px,0px);
        -ms-transform: translate(0px,0px);
            transform: translate(0px,0px);
  }

  50% {
    -webkit-transform: translate(2.5px,0px);
       -moz-transform: translate(2.5px,0px);
        -ms-transform: translate(2.5px,0px);
            transform: translate(2.5px,0px);
  }

  100% {
    -webkit-transform: translate(0px,0px);
       -moz-transform: translate(0px,0px);
        -ms-transform: translate(0px,0px);
            transform: translate(0px,0px);
  }
}

.am-weather-cloud-2 {
  -webkit-animation-name: am-weather-cloud-2;
     -moz-animation-name: am-weather-cloud-2;
          animation-name: am-weather-cloud-2;
  -webkit-animation-delay: 0.5s;
     -moz-animation-delay: 0.5s;
      -ms-animation-delay: 0.5s;
          animation-delay: 0.5s;
  -webkit-animation-duration: 7.5s;
     -moz-animation-duration: 7.5s;
          animation-duration: 7.5s;
  -webkit-animation-timing-function: linear;
     -moz-animation-timing-function: linear;
          animation-timing-function: linear;
  -webkit-animation-iteration-count: infinite;
     -moz-animation-iteration-count: infinite;
          animation-iteration-count: infinite;
}

        ]]></style>
    </defs>
    <g id="mainly-fine">
        <g transform="translate(20,15)">
            <g class="am-weather-moon-star-1">
                <polygon fill="orange" points="3.3,1.5 4,2.7 5.2,3.3 4,4 3.3,5.2 2.7,4 1.5,3.3 2.7,2.7" stroke="none" stroke-miterlimit="10" transform="scale(0.8), translate(0,25)"/>
            </g>
            <g class="am-weather-moon-star-2">
                <polygon fill="orange" points="3.3,1.5 4,2.7 5.2,3.3 4,4 3.3,5.2 2.7,4 1.5,3.3 2.7,2.7" stroke="none" stroke-miterlimit="10" transform="scale(0.6), translate(2,26)"/>
            </g>
            <g class="am-weather-moon">
                <circle cx="0" cy="0" fill="orange" r="9.8" stroke="orange" stroke-width="2" transform="translate(14.5,13)"/>
            </g>
            <g class="am-weather-cloud-1">
                <path d="M47.7,35.4c0-4.6-3.7-8.2-8.2-8.2c-1,0-1.9,0.2-2.8,0.5c-0.3-3.4-3.1-6.2-6.6-6.2c-3.7,0-6.7,3-6.7,6.7c0,0.8,0.2,1.6,0.4,2.3    c-0.3-0.1-0.7-0.1-1-0.1c-3.7,0-6.7,3-6.7,6.7c0,3.6,2.9,6.6,6.5,6.7l17.2,0C44.2,43.3,47.7,39.8,47.7,35.4z" fill="#91C0F8" stroke="white" stroke-linejoin="round" stroke-width="1.2" transform="translate(7,3), scale(0.5)"/>
            </g>
            <g class="am-weather-cloud-2">
                <path d="M47.7,35.4c0-4.6-3.7-8.2-8.2-8.2c-1,0-1.9,0.2-2.8,0.5c-0.3-3.4-3.1-6.2-6.6-6.2c-3.7,0-6.7,3-6.7,6.7c0,0.8,0.2,1.6,0.4,2.3    c-0.3-0.1-0.7-0.1-1-0.1c-3.7,0-6.7,3-6.7,6.7c0,3.6,2.9,6.6,6.5,6.7l17.2,0C44.2,43.3,47.7,39.8,47.7,35.4z" fill="#C6DEFF" stroke="white" stroke-linejoin="round" stroke-width="1.2" transform="translate(-6,-4), scale(0.3)"/>
            </g>
        </g>
    </g>
</svg>